Coordinates
version=1
nRows=13
nColumns=22
inDegrees=yes

Units are S.I. units (second, meters, Newtons, ...)
If the header above contains a line with 'inDegrees', this indicates whether rotational values are in degrees (yes) or radians (no).

endheader
time	pelvis_tilt	pelvis_list	pelvis_rotation	pelvis_tx	pelvis_ty	pelvis_tz	hip_flexion_r	hip_adduction_r	hip_rotation_r	knee_angle_r	ankle_angle_r	subtalar_angle_r	hip_flexion_l	hip_adduction_l	hip_rotation_l	knee_angle_l	ankle_angle_l	subtalar_angle_l	lumbar_extension	lumbar_bending	lumbar_rotation
      3.59000000	     -1.51554818	     -1.73990559	     13.74933938	      0.02528569	      0.94531768	     -0.35421173	     27.65651096	      3.00230114	     -7.22887629	    -59.58502390	      8.57303230	     -2.67652647	     13.37181976	     -4.19439091	      6.84666221	    -23.95656895	     12.17421018	      2.82493525	     -8.22830678	     -1.77366950	     -1.57858848
      3.60000000	     -1.40055568	     -1.79009958	     13.15815164	      0.03247646	      0.94596058	     -0.35552608	     28.24060098	      2.68623965	     -8.08984643	    -58.16721369	      8.90522359	     -2.93293597	     12.47136400	     -4.39010191	      6.23226116	    -23.61515335	     12.49107618	      2.62000158	     -8.37557549	     -1.61666945	     -1.92581328
      3.61000000	     -1.31308813	     -1.81975356	     12.56742113	      0.03965325	      0.94640655	     -0.35672745	     28.77751976	      2.36730645	     -8.92937493	    -56.61189318	      9.20504438	     -3.10685168	     11.60745746	     -4.55261778	      5.61000941	    -23.30053448	     12.83032501	      2.47697295	     -8.50376330	     -1.48651941	     -2.26703847
      3.62000000	     -1.26196115	     -1.83488748	     11.97894233	      0.04680790	      0.94663486	     -0.35780458	     29.28022155	      2.05255060	     -9.74475658	    -54.92965504	      9.48385760	     -3.19378301	     10.79467949	     -4.68452664	      4.99802409	    -23.01739749	     13.19189644	      2.37310871	     -8.60153758	     -1.38016050	     -2.59542828
      3.63000000	     -1.22600399	     -1.82472500	     11.39758717	      0.05394822	      0.94668649	     -0.35875804	     29.72582070	      1.73711794	    -10.53063827	    -53.12832191	      9.70910065	     -3.22748590	     10.01291227	     -4.78160177	      4.37827619	    -22.76999746	     13.54927379	      2.29132950	     -8.69466414	     -1.30480852	     -2.92779746
      3.64000000	     -1.19518808	     -1.79924809	     10.82373577	      0.06107947	      0.94658146	     -0.35958066	     30.10338417	      1.43927843	    -11.28333468	    -51.20796174	      9.87396547	     -3.21655263	      9.25153024	     -4.85458353	      3.76050358	    -22.55149817	     13.90327246	      2.22264402	     -8.79083960	     -1.24500605	     -3.25857484
      3.65000000	     -1.16301788	     -1.75727808	     10.26064098	      0.06821101	      0.94633058	     -0.36027885	     30.40690198	      1.15219322	    -12.01683115	    -49.17893891	      9.97710787	     -3.16846257	      8.50991410	     -4.90332287	      3.14004602	    -22.37173247	     14.25057056	      2.16474275	     -8.89598197	     -1.20347533	     -3.57021173
      3.66000000	     -1.17424036	     -1.73956840	      9.71031491	      0.07534327	      0.94584672	     -0.36082444	     30.68508870	      0.93044821	    -12.70185905	    -47.03078801	     10.06978218	     -3.10485246	      7.85158601	     -4.96128448	      2.55136166	    -22.24545753	     14.64849702	      2.07568506	     -8.94598505	     -1.14291585	     -3.87703487
      3.67000000	     -1.16669946	     -1.71374933	      9.17395246	      0.08251016	      0.94526406	     -0.36126679	     30.86618895	      0.72703402	    -13.38547978	    -44.78063817	     10.11007254	     -3.03524945	      7.18962587	     -5.00654629	      1.96945370	    -22.14814143	     15.04097738	      1.99311102	     -9.01746418	     -1.08408965	     -4.15468332
      3.68000000	     -1.15143787	     -1.67591617	      8.65039997	      0.08972559	      0.94456544	     -0.36159834	     30.96730522	      0.53410632	    -14.08017138	    -42.44795995	     10.13495886	     -2.97285372	      6.53409616	     -5.03437167	      1.39597599	    -22.07963516	     15.43459180	      1.92284596	     -9.09583630	     -1.03486832	     -4.40137224
      3.69000000	     -1.16300175	     -1.65849159	      8.14129045	      0.09697505	      0.94369151	     -0.36179831	     31.02892887	      0.39657793	    -14.76044742	    -40.02776449	     10.16230238	     -2.92593579	      5.94037611	     -5.07428953	      0.85547150	    -22.06386743	     15.86462197	      1.83814009	     -9.13531460	     -0.96451219	     -4.63461980
      3.70000000	     -1.18381559	     -1.64120473	      7.64592239	      0.10426286	      0.94268503	     -0.36189965	     31.03708677	      0.28747555	    -15.44142442	    -37.54406262	     10.19920692	     -2.89393248	      5.38025877	     -5.10819750	      0.33991820	    -22.09059665	     16.31207181	      1.75860937	     -9.16002494	     -0.88767273	     -4.84770978
      3.71000000	     -1.19603433	     -1.60962195	      7.15932985	      0.11163428	      0.94158702	     -0.36190214	     30.97922464	      0.18570712	    -16.16248552	    -35.02734951	     10.26973404	     -2.88592173	      4.81469722	     -5.12662123	     -0.16725388	    -22.13429351	     16.75423538	      1.71852722	     -9.18711761	     -0.81979331	     -5.02352328
